# xmcd CD database file generated by Grip 3.3.1
# 
# Track frame offsets:
#       150
#       13638
#       26174
#       43969
#       61662
#       75175
#       93255
#       110541
#       129838
#       144542
#       170461
# 
# Disc length: 2449 seconds
# 
# Revision: 1
# Processed by: cddbd v1.5.2PL0 Copyright (c) Steve Scherf et al.
# Submitted via: Grip 3.3.1
# 
DISCID=82098f0b
DTITLE=Jonah Tolchin - Clover Lane
DYEAR=2014
DGENRE=Blues
TTITLE0=Mocking Bird
TTITLE1=Midnight Train
TTITLE2=Hey Baby Blues
TTITLE3=Diamond Mind
TTITLE4=Atlantic Winds
TTITLE5=Mansion In Hollywood
TTITLE6=Low Life
TTITLE7=Hybrid Automobile
TTITLE8=21St Century Girl
TTITLE9=Motel #9
TTITLE10=I'll Be Gone
EXTD=
EXTT0=
EXTT1=
EXTT2=
EXTT3=
EXTT4=
EXTT5=
EXTT6=
EXTT7=
EXTT8=
EXTT9=
EXTT10=
PLAYORDER=
